<svg width="463" height="359" viewBox="0 0 463 359" fill="none" xmlns="http://www.w3.org/2000/svg">
<g clip-path="url(#clip0_13_56)">
<path d="M305.257 352.512L314.718 352.511L319.219 315.764L305.255 315.765L305.257 352.512Z" fill="#A0616A"/>
<path d="M337.672 352.296C337.967 352.795 338.122 354.408 338.122 354.989C338.122 356.775 336.685 358.222 334.911 358.222H305.611C304.401 358.222 303.42 357.235 303.42 356.016V354.788C303.42 354.788 301.971 351.096 304.955 346.546C304.955 346.546 308.664 350.109 314.206 344.528L315.84 341.547L327.67 350.259L334.228 351.072C335.662 351.25 336.934 351.044 337.672 352.296Z" fill="#2F2E41"/>
<path d="M334.112 342.818L343.046 345.954L359.311 312.747L346.125 308.119L334.112 342.818Z" fill="#A0616A"/>
<path d="M364.791 353.36C364.906 353.93 364.525 355.504 364.335 356.052C363.751 357.739 361.921 358.629 360.246 358.041L332.579 348.327C331.437 347.926 330.834 346.669 331.232 345.518L331.634 344.358C331.634 344.358 331.472 340.392 335.778 337.085C335.778 337.085 338.115 341.679 345.173 338.246L347.691 335.973L356.013 348.122L361.939 351.063C363.235 351.706 364.503 351.934 364.791 353.36Z" fill="#2F2E41"/>
<path d="M39.6282 125.942H2.88386C1.32536 125.942 0.057373 124.665 0.057373 123.096C0.057373 121.526 1.32536 120.25 2.88386 120.25H39.6282C41.1867 120.25 42.4547 121.526 42.4547 123.096C42.4547 124.665 41.1867 125.942 39.6282 125.942Z" fill="#E6E6E6"/>
<path d="M137.848 98.5981H0V99.3097H137.848V98.5981Z" fill="#E6E6E6"/>
<path d="M95.4512 175.749H58.7069C57.1484 175.749 55.8804 174.472 55.8804 172.903C55.8804 171.334 57.1484 170.057 58.7069 170.057H95.4512C97.0097 170.057 98.2777 171.334 98.2777 172.903C98.2777 174.472 97.0097 175.749 95.4512 175.749Z" fill="#E6E6E6"/>
<path d="M193.671 148.406H55.823V149.117H193.671V148.406Z" fill="#E6E6E6"/>
<path d="M43.8677 241.21H7.12336C5.56486 241.21 4.29688 239.934 4.29688 238.364C4.29688 236.795 5.56486 235.518 7.12336 235.518H43.8677C45.4262 235.518 46.6942 236.795 46.6942 238.364C46.6942 239.934 45.4262 241.21 43.8677 241.21Z" fill="#E6E6E6"/>
<path d="M142.088 213.867H4.23975V214.578H142.088V213.867Z" fill="#E6E6E6"/>
<path d="M126.369 217.052L120.554 214.278C122.939 217.63 124.994 222.865 126.095 227.03C127.958 223.15 130.961 218.402 133.934 215.566L127.787 217.158C131.575 198.468 145.82 185.05 162.132 185.05V183.627C145.093 183.627 130.236 197.607 126.369 217.052Z" fill="#3F3D56"/>
<path d="M153.136 245.53H116.391C114.833 245.53 113.565 244.253 113.565 242.684C113.565 241.115 114.833 239.838 116.391 239.838H153.136C154.694 239.838 155.962 241.115 155.962 242.684C155.962 244.253 154.694 245.53 153.136 245.53Z" fill="#7CA7DA"/>
<path d="M391.483 191.506L385.667 188.732C388.053 192.084 390.108 197.319 391.208 201.484C393.071 197.604 396.075 192.856 399.047 190.02L392.901 191.612C396.688 172.922 410.934 159.504 427.246 159.504V158.081C410.207 158.081 395.35 172.061 391.483 191.506Z" fill="#3F3D56"/>
<path d="M418.249 219.984H381.505C379.946 219.984 378.678 218.707 378.678 217.138C378.678 215.569 379.946 214.292 381.505 214.292H418.249C419.808 214.292 421.076 215.569 421.076 217.138C421.076 218.707 419.808 219.984 418.249 219.984Z" fill="#7CA7DA"/>
<path d="M351.119 137.326L288.229 146.576L303.775 336.556L321.44 335.845L327.093 206.345L350.412 263.98L336.28 335.133L353.945 334.438L375.144 263.268L361.011 182.153L351.119 137.326Z" fill="#2F2E41"/>
<path d="M332.746 44.1152H309.856L291.284 147.967C291.284 147.967 302.341 163.239 324.257 148.859C346.172 134.48 356.293 146.544 356.293 146.544L332.746 44.1152Z" fill="#7CA7DA"/>
<path d="M296.937 224.102L318.614 184.288L320.027 67.5959L309.856 44.1152L303.775 54.0767L285.403 65.5341L288.964 115.989L287.7 148.761L287.044 165.756C284.754 175.94 288.826 217.595 296.937 224.102Z" fill="#2F2E41"/>
<path d="M333.37 46.7142L355.712 65.817L368.784 178.595L369.013 178.563C370.212 183.299 370.297 212.191 367.597 216.254L335.22 183.22L325.68 66.8843L333.37 46.7142Z" fill="#2F2E41"/>
<path d="M407.98 161.813C410.108 165.961 409.708 170.43 407.086 171.794C404.465 173.158 400.614 170.9 398.485 166.751C397.554 164.935 397.107 163.058 397.118 161.407L388.319 143.713L396.652 139.732L404.442 157.597C405.787 158.543 407.048 159.997 407.98 161.813Z" fill="#A0616A"/>
<path d="M337.31 49.7089C337.31 49.7089 353.872 63.174 358.983 67.8687C361.698 70.3635 379.909 108.859 379.909 108.859L405.204 153.217L392.056 158.246L365.16 117.346L341.932 90.3651L337.31 49.7089Z" fill="#2F2E41"/>
<path d="M234.194 166.082C232.066 170.231 232.466 174.699 235.088 176.063C237.71 177.427 241.56 175.169 243.689 171.021C244.62 169.205 245.067 167.327 245.056 165.676L253.855 147.982L245.522 144.001L237.732 161.866C236.388 162.812 235.126 164.266 234.194 166.082Z" fill="#A0616A"/>
<path d="M304.407 53.0115C304.407 53.0115 288.302 61.7508 283.192 66.4456C280.476 68.9404 262.265 113.128 262.265 113.128L236.97 157.486L250.118 162.515L277.014 121.615L295.295 98.9034L304.407 53.0115Z" fill="#2F2E41"/>
<path d="M321.809 40.2776C332 40.2776 340.262 31.9582 340.262 21.6956C340.262 11.4331 332 3.11365 321.809 3.11365C311.617 3.11365 303.355 11.4331 303.355 21.6956C303.355 31.9582 311.617 40.2776 321.809 40.2776Z" fill="#A0616A"/>
<path d="M329.38 7.11535e-06C329.38 7.11535e-06 330.7 5.31663 324.76 0.664588C322.594 -1.03175 319.825 1.69917 317.501 1.99374C313.451 2.507 310.241 2.11859 310.241 4.65205C310.241 6.27168 308.105 3.80701 306.941 3.98747C305.239 4.25131 304.301 6.64578 304.301 6.64578C301.723 8.29733 299.681 11.9624 303.641 13.2916C299.681 17.9436 303.351 20.3141 303.351 20.3141L306.941 15.9499C308.8 16.9709 311.324 19.6093 312.25 18.1294C314.861 13.9561 322.543 18.3071 325.726 16.5544C328.932 14.7895 330.7 21.9311 330.7 21.9311L332.169 22.7003C332.169 22.7003 331.36 21.2665 335.32 19.9373C337.3 19.2728 337.795 21.2665 337.795 23.4264C337.795 25.8694 337.104 28.2622 335.912 30.3901L332.169 37.0723L333.813 36.017C337.272 33.7959 339.532 30.2623 340.753 26.3184C340.812 26.1281 340.891 25.9562 340.992 25.8091L340.6 22.5957L341.892 24.1228C342.091 23.5509 342.142 23.0168 341.92 22.5957C339.541 18.0877 343.24 15.2853 339.28 9.30409C333.411 0.43943 329.38 7.11535e-06 329.38 7.11535e-06Z" fill="#2F2E41"/>
<path d="M204.61 358.153C204.61 358.623 204.984 359 205.451 359H462.159C462.625 359 463 358.623 463 358.153C463 357.684 462.625 357.307 462.159 357.307H205.451C204.984 357.307 204.61 357.684 204.61 358.153Z" fill="#CCCCCC"/>
<path d="M174.591 177.528H152.43C149.578 177.528 147.258 175.192 147.258 172.32V147.159C147.258 144.287 149.578 141.951 152.43 141.951H174.591C177.443 141.951 179.763 144.287 179.763 147.159V172.32C179.763 175.192 177.443 177.528 174.591 177.528Z" fill="white"/>
<path d="M174.591 177.528H152.43C149.578 177.528 147.258 175.192 147.258 172.32V147.159C147.258 144.287 149.578 141.951 152.43 141.951H174.591C177.443 141.951 179.763 144.287 179.763 147.159C182.246 155.076 181.994 163.511 179.763 172.32C179.763 175.192 177.443 177.528 174.591 177.528ZM152.43 142.663C149.968 142.663 147.965 144.68 147.965 147.159V172.32C147.965 174.8 149.968 176.817 152.43 176.817H174.591C177.053 176.817 179.056 174.8 179.056 172.32V147.159C179.056 144.68 177.053 142.663 174.591 142.663H152.43Z" fill="#3F3D56"/>
<path d="M172.352 157.249H154.092C153.318 157.249 152.688 156.615 152.688 155.835C152.688 155.055 153.318 154.421 154.092 154.421H172.352C173.127 154.421 173.757 155.055 173.757 155.835C173.757 156.615 173.127 157.249 172.352 157.249Z" fill="#7CA7DA"/>
<path d="M172.352 165.076H154.092C153.318 165.076 152.688 164.442 152.688 163.662C152.688 162.882 153.318 162.247 154.092 162.247H172.352C173.127 162.247 173.757 162.882 173.757 163.662C173.757 164.442 173.127 165.076 172.352 165.076Z" fill="#7CA7DA"/>
<path d="M34.8332 110.069H12.6719C9.82023 110.069 7.50024 107.733 7.50024 104.862V79.7003C7.50024 76.8288 9.82022 74.4927 12.6719 74.4927H34.8332C37.6849 74.4927 40.0048 76.8288 40.0048 79.7003V104.862C40.0048 107.733 37.6849 110.069 34.8332 110.069Z" fill="white"/>
<path d="M34.8332 110.069H12.6719C9.82024 110.069 7.50025 107.733 7.50025 104.862C6.38589 95.5967 6.0789 86.9676 7.50025 79.7003C7.50025 76.8288 9.82024 74.4927 12.6719 74.4927H34.8332C37.6849 74.4927 40.0048 76.8288 40.0048 79.7003V104.862C40.0048 107.733 37.6849 110.069 34.8332 110.069ZM12.6719 75.2042C10.2098 75.2042 8.20688 77.221 8.20688 79.7003V104.862C8.20688 107.341 10.2098 109.358 12.6719 109.358H34.8332C37.2953 109.358 39.2982 107.341 39.2982 104.862V79.7003C39.2982 77.221 37.2953 75.2042 34.8332 75.2042H12.6719Z" fill="#3F3D56"/>
<path d="M32.594 89.7907H14.3341C13.5596 89.7907 12.9294 89.1562 12.9294 88.3763C12.9294 87.5964 13.5596 86.9619 14.3341 86.9619H32.594C33.3685 86.9619 33.9986 87.5964 33.9986 88.3763C33.9986 89.1562 33.3685 89.7907 32.594 89.7907Z" fill="#7CA7DA"/>
<path d="M32.594 97.6176H14.3341C13.5596 97.6176 12.9294 96.9831 12.9294 96.2032C12.9294 95.4233 13.5596 94.7888 14.3341 94.7888H32.594C33.3685 94.7888 33.9986 95.4233 33.9986 96.2032C33.9986 96.9831 33.3685 97.6176 32.594 97.6176Z" fill="#7CA7DA"/>
<path d="M32.594 81.9638H14.3341C13.5596 81.9638 12.9294 81.3293 12.9294 80.5494C12.9294 79.7695 13.5596 79.135 14.3341 79.135H32.594C33.3685 79.135 33.9986 79.7695 33.9986 80.5494C33.9986 81.3293 33.3685 81.9638 32.594 81.9638Z" fill="#7CA7DA"/>
<path d="M271.304 161.487L254.743 176.315C252.612 178.223 249.337 178.03 247.442 175.884C240.558 170.379 234.911 164.174 230.837 157.081C228.942 154.935 229.134 151.637 231.265 149.729L247.826 134.9C249.957 132.992 253.233 133.186 255.128 135.332L271.732 154.134C273.627 156.28 273.435 159.578 271.304 161.487Z" fill="white"/>
<path d="M271.304 161.487L254.743 176.315C252.612 178.223 249.337 178.03 247.442 175.884C239.589 171.042 233.705 164.989 230.837 157.081C228.942 154.935 229.134 151.637 231.265 149.729L247.826 134.9C249.957 132.992 253.233 133.186 255.128 135.332L271.732 154.134C273.627 156.28 273.435 159.578 271.304 161.487ZM231.735 150.261C229.895 151.908 229.729 154.755 231.365 156.608C235.038 164.11 240.701 170.293 247.97 175.411C249.606 177.264 252.433 177.431 254.273 175.783L270.834 160.955C272.674 159.307 272.84 156.46 271.204 154.607L254.6 135.804C252.964 133.952 250.136 133.785 248.296 135.432L231.735 150.261Z" fill="#3F3D56"/>
<path d="M256.248 147.831L242.603 160.049C242.024 160.567 241.135 160.514 240.62 159.932C240.105 159.349 240.157 158.453 240.736 157.935L254.382 145.717C254.96 145.199 255.85 145.251 256.365 145.834C256.879 146.417 256.827 147.312 256.248 147.831Z" fill="#7CA7DA"/>
<path d="M261.413 153.68L247.768 165.898C247.189 166.416 246.3 166.363 245.785 165.781C245.27 165.198 245.323 164.302 245.901 163.784L259.547 151.566C260.126 151.048 261.015 151.1 261.53 151.683C262.044 152.266 261.992 153.161 261.413 153.68Z" fill="#7CA7DA"/>
<path d="M251.083 141.982L237.438 154.2C236.859 154.718 235.97 154.666 235.455 154.083C234.94 153.5 234.992 152.604 235.571 152.086L249.217 139.868C249.795 139.35 250.685 139.402 251.2 139.985C251.714 140.568 251.662 141.464 251.083 141.982Z" fill="#7CA7DA"/>
<path d="M80.7634 234.588H58.6021C55.7504 234.588 53.4304 232.252 53.4304 229.38V204.219C53.4304 201.347 55.7504 199.011 58.6021 199.011H80.7634C83.615 199.011 85.935 201.347 85.935 204.219V229.38C85.935 232.252 83.615 234.588 80.7634 234.588Z" fill="white"/>
<path d="M80.7634 234.588H58.6021C55.7505 234.588 53.4305 232.252 53.4305 229.38C51.4657 221.09 51.6286 212.694 53.4305 204.219C53.4305 201.347 55.7505 199.011 58.6021 199.011H80.7634C83.6151 199.011 85.9351 201.347 85.9351 204.219V229.38C85.9351 232.252 83.6151 234.588 80.7634 234.588ZM58.6021 199.723C56.14 199.723 54.1371 201.74 54.1371 204.219V229.38C54.1371 231.86 56.14 233.877 58.6021 233.877H80.7634C83.2255 233.877 85.2285 231.86 85.2285 229.38V204.219C85.2285 201.74 83.2255 199.723 80.7634 199.723H58.6021Z" fill="#3F3D56"/>
<path d="M78.5242 214.309H60.2642C59.4897 214.309 58.8596 213.675 58.8596 212.895C58.8596 212.115 59.4897 211.481 60.2642 211.481H78.5242C79.2986 211.481 79.9288 212.115 79.9288 212.895C79.9288 213.675 79.2986 214.309 78.5242 214.309Z" fill="#7CA7DA"/>
</g>
<defs>
<clipPath id="clip0_13_56">
<rect width="463" height="359" fill="white"/>
</clipPath>
</defs>
</svg>
