<svg width="102" height="34" viewBox="0 0 102 34" fill="none" xmlns="http://www.w3.org/2000/svg">
<path d="M11.132 23.012C12.98 23.012 14.456 22.22 15.56 20.636C16.664 19.052 17.216 16.88 17.216 14.12C17.216 11.48 16.664 9.416 15.56 7.928C14.456 6.416 12.98 5.66 11.132 5.66C9.284 5.66 7.808 6.416 6.704 7.928C5.6 9.416 5.048 11.48 5.048 14.12C5.048 16.88 5.6 19.052 6.704 20.636C7.808 22.22 9.284 23.012 11.132 23.012ZM18.62 32.264C16.292 32.264 14.324 31.7 12.716 30.572C11.132 29.444 9.956 28.004 9.188 26.252C7.508 25.94 6.032 25.268 4.76 24.236C3.488 23.18 2.504 21.8 1.808 20.096C1.112 18.368 0.764 16.376 0.764 14.12C0.764 11.576 1.196 9.404 2.06 7.604C2.948 5.804 4.172 4.424 5.732 3.464C7.292 2.504 9.092 2.024 11.132 2.024C13.196 2.024 15.008 2.504 16.568 3.464C18.128 4.424 19.34 5.804 20.204 7.604C21.092 9.404 21.536 11.576 21.536 14.12C21.536 17.384 20.816 20.072 19.376 22.184C17.936 24.272 16.016 25.592 13.616 26.144C14.168 27.08 14.936 27.764 15.92 28.196C16.904 28.628 17.96 28.844 19.088 28.844C19.616 28.844 20.084 28.808 20.492 28.736C20.924 28.664 21.308 28.58 21.644 28.484L22.4 31.58C22.016 31.748 21.488 31.904 20.816 32.048C20.168 32.192 19.436 32.264 18.62 32.264ZM31.1418 26.432C29.2458 26.432 27.8658 25.82 27.0018 24.596C26.1378 23.372 25.7058 21.644 25.7058 19.412V8.324H29.8458V18.872C29.8458 20.336 30.0618 21.368 30.4938 21.968C30.9258 22.568 31.6218 22.868 32.5818 22.868C33.3498 22.868 34.0218 22.676 34.5978 22.292C35.1978 21.908 35.8338 21.284 36.5058 20.42V8.324H40.6458V26H37.2618L36.9378 23.408H36.8298C36.0618 24.32 35.2218 25.052 34.3098 25.604C33.3978 26.156 32.3418 26.432 31.1418 26.432ZM45.8897 26V8.324H50.0297V26H45.8897ZM47.9777 5.228C47.2337 5.228 46.6337 5.012 46.1777 4.58C45.7217 4.148 45.4937 3.572 45.4937 2.852C45.4937 2.156 45.7217 1.592 46.1777 1.16C46.6337 0.727999 47.2337 0.512 47.9777 0.512C48.7217 0.512 49.3217 0.727999 49.7777 1.16C50.2337 1.592 50.4617 2.156 50.4617 2.852C50.4617 3.572 50.2337 4.148 49.7777 4.58C49.3217 5.012 48.7217 5.228 47.9777 5.228ZM53.9076 26V23.768L62.2596 11.6H54.8436V8.324H67.4436V10.52L59.1276 22.688H67.7316V26H53.9076ZM69.8685 26V23.768L78.2205 11.6H70.8045V8.324H83.4045V10.52L75.0885 22.688H83.6925V26H69.8685ZM88.2105 33.272C87.7305 33.272 87.3105 33.236 86.9505 33.164C86.5905 33.092 86.2425 33.008 85.9065 32.912L86.6625 29.672C86.8305 29.72 87.0225 29.768 87.2385 29.816C87.4785 29.888 87.7065 29.924 87.9225 29.924C88.8585 29.924 89.6025 29.636 90.1545 29.06C90.7305 28.508 91.1625 27.788 91.4505 26.9L91.7745 25.784L84.8265 8.324H89.0385L92.0985 17C92.3625 17.768 92.6145 18.584 92.8545 19.448C93.1185 20.288 93.3825 21.128 93.6465 21.968H93.7905C94.0065 21.152 94.2225 20.324 94.4385 19.484C94.6785 18.62 94.9065 17.792 95.1225 17L97.7865 8.324H101.783L95.3745 26.792C94.6305 28.784 93.7305 30.356 92.6745 31.508C91.6185 32.684 90.1305 33.272 88.2105 33.272Z" fill="#314C76"/>
</svg>
